
<svg width="30px" height="29px" viewBox="0 0 30 29" version="1.1" xmlns="http://www.w3.org/2000/svg" xmlns:xlink="http://www.w3.org/1999/xlink">
    <g id="Page-1" stroke="none" stroke-width="1" fill="none" fill-rule="evenodd">
        <g transform="translate(-115.000000, -1764.000000)" fill="#000000">
            <g transform="translate(90.000000, 1381.000000)">
                <path d="M36.1595166,409.111373 C36.3253292,409.158742 36.4165733,409.306459 36.5628785,409.397457 C37.0741602,409.716262 37.65592,409.885793 38.207475,409.94407 C39.1979456,410.049092 40.2076089,409.973987 41.2094063,409.973987 C41.9768008,409.629627 42.8250564,409.56543 43.6125875,409.254103 C44.4614724,408.918469 45.2810962,408.546997 46.0406248,408.056791 C46.7432045,407.603046 47.4602574,407.167688 48.0511417,406.551892 C48.2565982,406.33842 48.6074161,406.214388 48.7565531,405.951054 C48.9428169,405.622588 49.2045931,405.379822 49.4647962,405.129888 C49.7460797,404.859387 49.9575144,404.529674 50.1824783,404.225515 C50.4923937,403.806986 50.6270574,403.265671 50.9061385,402.819717 C51.1924563,402.361609 51.3604713,401.856756 51.5350936,401.365615 C51.7352014,400.803109 51.9982362,400.228137 51.9922581,399.623248 C51.9840776,398.825455 52.0545558,398.032337 51.8849676,397.223637 C51.7367746,396.514972 51.4293763,395.849002 51.363303,395.125067 C50.8394359,394.25404 50.6613526,393.22844 50.063861,392.381096 C49.6123599,391.741304 49.2225273,391.060375 48.6539821,390.507841 C48.3588546,390.220823 48.0203075,389.977434 47.7204604,389.704439 C46.8863634,388.945601 45.959449,388.343205 45.0032736,387.749223 C43.9577419,387.100082 42.8602955,386.794676 41.6571317,386.75915 C41.2817723,386.748242 40.9057837,386.756657 40.5301096,386.757592 C40.2651871,386.758215 39.9930279,386.79717 39.8039323,386.574037 C39.7120589,386.657244 39.6579417,386.70586 39.6041392,386.754164 C39.3996265,386.55752 39.2161944,386.310703 38.8216423,386.420399 C38.7140371,386.158624 38.3912217,386.145535 38.1388846,386.069495 C37.8428132,385.980055 37.5080417,386.016828 37.2110263,386 C37.0672382,386.173271 36.8784573,386.198825 36.7236569,386.283279 L36.6075566,386.168284 C36.5030979,386.265204 36.3980098,386.362435 36.29009,386.462471 L35.8168792,386.462471 C35.7209156,386.772239 35.360344,386.764136 35.1501679,386.978854 C34.9459699,387.18734 34.6222106,387.258705 34.3708173,387.447246 C34.1644168,387.601818 33.9193163,387.774154 33.7922038,387.94836 C33.6043668,388.206084 33.2796636,388.289603 33.1437413,388.554807 C33.0213483,388.79321 32.8086552,388.949964 32.6507085,389.151593 C32.4748276,389.375661 32.4597251,389.788269 32.0321363,389.760845 C32.0182924,389.877398 31.9994143,389.960294 31.9377458,390.044124 C31.5507449,390.571727 31.1876563,391.113977 30.8585482,391.681158 C30.7163332,391.926417 30.5480036,392.131474 30.5001791,392.432828 C30.4624229,392.671231 30.3500982,392.974143 30.1669808,393.096617 C29.8731118,393.293883 29.903946,393.607703 29.788475,393.849534 C29.6553844,394.129384 29.5547013,394.452241 29.4769865,394.759828 C29.317152,395.391829 29.1689589,396.034738 29.1610931,396.691047 C30.0530829,396.826922 30.926824,396.576676 31.7823162,396.8665 C32.0201802,396.553927 32.2791247,396.814768 32.5044032,396.893612 C32.6198742,396.831285 32.651967,396.707564 32.7866307,396.730002 C32.9738385,396.924153 33.2261756,396.87616 33.4652981,396.876472 C35.7441985,396.87803 38.0230989,396.873044 40.3019993,396.882393 C40.625444,396.88364 40.9174252,396.831908 41.2603772,396.603789 C40.8485201,396.617813 40.668549,396.345129 40.5181535,396.118569 C40.315214,395.812229 39.9628229,395.8677 39.7158346,395.665447 C38.8477569,394.953978 37.9680378,394.2503 37.0367186,393.625466 C36.752918,393.435055 36.5499785,393.168605 36.2561095,392.996269 C36.0943872,392.901531 35.8382744,392.979753 35.7536376,392.683073 C35.7083302,392.523203 35.4471832,392.422856 35.2819999,392.297266 C35.1961046,392.232133 35.1485947,392.153912 35.1791143,392.034555 C35.3348586,391.846326 35.6164568,392.089092 35.7781791,391.882476 L35.7781791,391.293169 L35.9940186,391.079385 C36.197902,390.919826 36.3212389,391.22305 36.5015247,391.173188 C36.5591029,391.115535 36.6053542,391.053831 36.7566936,391.088423 C37.1446384,391.467997 37.7260836,391.645319 38.2691434,391.782752 C38.7137225,391.895565 39.0535282,392.086599 39.3917606,392.346504 C39.6522783,392.546888 39.8995813,392.796821 40.2249138,392.862577 C40.5917781,392.937058 40.5464706,393.451572 40.9435398,393.454377 C41.4321678,393.878204 42.0195911,394.178 42.4776995,394.648885 L42.7948515,394.648885 C43.1827963,395.215131 43.8595759,395.475037 44.2629378,395.984253 L44.5366701,395.984253 C45.3943648,396.747766 46.4140964,397.279108 47.3202449,397.966893 C47.3570571,398.139228 47.325279,398.329951 47.4615159,398.475174 C47.2267983,398.629435 47.4369744,398.899002 47.3023107,399.07944 C47.0723126,399.307247 46.8095925,399.511993 46.6208115,399.769718 C46.4251086,400.036791 46.1523202,400.20788 45.930188,400.437558 C45.712146,400.663183 45.4906431,400.887563 45.145174,400.89473 C44.7798829,400.901898 44.7260803,401.492763 44.2862208,401.327907 C43.9753615,401.604953 43.7349805,401.974555 43.2517013,401.94121 C43.2145744,401.938405 43.1746157,401.991695 43.1343425,402.015691 C42.5132532,402.386852 41.861959,402.717188 41.2833455,403.144755 C40.9935668,403.359162 40.625444,403.444239 40.3904117,403.706015 C40.17646,403.944106 39.7406907,403.881156 39.6573125,404.268833 C39.3099556,404.368557 39.1293552,404.686739 38.8628594,404.868736 C38.4771171,405.13207 38.1429748,405.481727 37.6659884,405.682111 C37.4287537,405.323415 36.9744209,405.462094 36.6610446,405.262646 C36.2469851,404.999 35.782584,404.844116 35.3483879,404.624412 C35.1174459,404.507548 34.9610723,404.360766 34.8644794,404.184691 C34.9598138,403.820386 35.2731901,403.917929 35.4736125,403.821009 C35.4311368,403.719104 35.3005634,403.691368 35.3266781,403.556429 C35.4805345,403.378172 35.4572515,403.051887 35.7737742,402.979276 C35.8958526,402.954345 35.9200794,403.089595 36.0393261,403.127615 C36.8724792,402.331692 37.9126621,401.783521 38.8474423,401.089192 C39.7535908,400.416366 40.7903127,399.915876 41.9072665,399.258632 C41.4853411,399.258632 41.2301722,399.295405 40.9923083,399.248348 C40.7487809,399.200044 40.5222438,399.489867 40.2881554,399.258632 C40.0792378,399.502956 39.8715788,399.243985 39.6610881,399.248036 C38.5098391,399.269851 37.3573315,399.269227 36.2057679,399.248348 C36.0084918,399.244608 35.9172477,399.421618 35.6941716,399.404166 C35.636908,399.205653 35.4474979,399.259878 35.2782243,399.259255 C34.7272986,399.257385 34.1747998,399.235259 33.6260766,399.269227 C33.3856955,399.284186 33.2217708,399.137404 33.0204044,399.101254 C32.8055088,399.316285 32.5975352,399.336853 32.3895615,399.118083 C32.334815,399.166387 32.2800686,399.214691 32.2199733,399.267669 C32.0142021,399.220923 31.8291968,399.00901 31.6117841,399.11746 C31.4091592,399.21843 31.2442906,399.148935 31.0548804,399.117148 C30.8601214,399.084426 30.6552941,399.109669 30.4551863,399.109669 C30.2295931,399.109669 30.0043145,399.112162 29.779036,399.109045 C29.5767257,399.106241 29.3659204,399.150805 29.2126932,398.974106 C29.1192466,399.080063 29.0566343,399.151117 29,399.215314 C29.0726807,399.412892 29.2095468,399.553441 29.1708467,399.772834 C29.1324613,399.989422 29.1057173,400.236239 29.1721053,400.437869 C29.4672328,401.331646 29.623921,402.274974 30.1125489,403.101438 C30.1833418,403.221418 30.3035323,403.335789 30.316747,403.461691 C30.3878544,404.139503 31.0312828,404.49664 31.2279295,405.099036 C31.8084309,405.563688 32.1809586,406.212207 32.7041964,406.732018 C33.0710606,407.096011 33.5486764,407.321014 33.872121,407.722715 C34.0294385,407.918424 34.2352097,408.041832 34.4532517,408.134077 C34.6373131,408.211987 34.7889671,408.312957 34.9201698,408.456311 C34.987187,408.529545 35.0822068,408.58564 35.1275142,408.669471 C35.2382657,408.873905 35.5541591,408.702193 35.5717786,408.827783 C35.6079616,409.088 35.8341841,409.064316 35.9568917,409.181803 C36.0663847,409.286202 36.0739359,409.07273 36.1595166,409.111373 M41.4214631,412 L40.0808111,412 C40.0920404,411.852343 39.9884814,411.845801 39.8874178,411.852343 C38.9943776,411.908727 38.1499977,411.690667 37.3159113,411.405945 C36.8804645,411.257353 36.4306692,411.145831 36.0058279,410.97263 C35.3682539,410.712828 34.6954325,410.566728 34.0750145,410.234032 C33.448046,409.898221 32.7680503,409.660225 32.1778889,409.244978 C31.6441859,408.869293 30.9953827,408.660268 30.5671102,408.131942 C29.8184911,407.895192 29.5025115,407.100522 28.8187727,406.779975 C28.5863889,406.205545 28.0417685,405.88126 27.6858625,405.397791 C27.3502316,404.941736 27.0532794,404.45048 26.6817772,404.014673 C26.4952462,403.79568 26.4188247,403.483232 26.2899999,403.214396 C26.1708446,402.96612 26.0111392,402.729993 25.9362773,402.469568 C25.8533054,402.17955 25.7591041,401.899811 25.6321508,401.626925 C25.5161149,401.378027 25.3380059,401.109502 25.3548498,400.860603 C25.3741892,400.572454 25.1071817,400.300191 25.3242812,400.01796 C24.9771091,399.750059 25.271566,399.342288 25.0931451,398.994951 C24.9312562,398.680012 25.0276409,398.225514 25.0366867,397.833007 C25.0457325,397.428975 24.9328158,397.006563 25.1879702,396.638978 C25.1274568,396.554869 25.0731819,396.479483 25.0045585,396.38416 C25.2512909,396.14741 25.0700627,395.776087 25.205438,395.579522 C25.4237852,395.262401 25.2481716,394.95525 25.3532902,394.648409 C25.5076929,394.516328 25.6006464,394.299826 25.6124996,394.110738 C25.6290316,393.843459 25.6168665,393.531635 25.7921682,393.370894 C26.0382767,393.145358 25.8873052,392.871538 26.0011577,392.628558 C26.1979821,392.20895 26.3037245,391.748845 26.6549517,391.412411 C26.608163,390.986261 27.0058668,390.770694 27.1300128,390.418061 C27.2594616,390.050476 27.4915335,389.723076 27.7098807,389.392872 C28.4064084,388.339023 29.1250827,387.301061 30.0305999,386.414495 C30.7916959,385.669667 31.5010125,384.881228 32.4165113,384.284057 C33.3388724,383.682214 34.288059,383.255752 35.3751163,383.150149 C35.574748,383.130835 35.7431873,383.087535 35.8823057,383 C36.6172001,383.213075 37.3461679,383.300922 38.086677,383.305906 C38.7245628,383.684394 39.4950166,383.588137 40.1734527,383.856661 C40.3147545,383.648259 40.5518172,383.734548 40.7601829,383.753862 C40.8359806,383.760715 40.8821454,383.903388 41.0016125,383.883763 C41.3728028,383.823018 41.6881586,384.012106 42.0237895,384.112725 C42.3772001,384.218951 42.7256199,384.348852 43.0858928,384.42268 C43.6610818,384.541055 44.136143,384.903345 44.6854423,385.051002 C44.922505,385.114862 45.0581922,385.241025 45.2219526,385.365319 C45.274044,385.319838 45.3255116,385.274669 45.3757315,385.230745 C45.6995092,385.429179 45.9958376,385.68057 46.3383308,385.802995 C46.7541264,385.951275 47.1000508,386.221668 47.5242682,386.362161 C47.8876604,386.482405 48.1899154,386.791737 48.5136931,387.024749 C48.8343516,387.25558 49.1924411,387.462114 49.4694302,387.718489 C49.9345098,388.148688 50.4647816,388.501321 50.9008522,388.960803 C51.1201352,389.191634 51.344721,389.417793 51.5502793,389.66015 C51.7455441,389.890981 52.0353221,390.015275 52.209376,390.266043 C52.2365134,390.305294 52.2683298,390.341118 52.3060726,390.388779 L52.3060726,390.618364 C52.4832458,390.908071 52.7352809,391.064139 52.9021606,391.316465 C53.3154607,391.941049 53.5843397,392.615786 53.8014393,393.328217 C53.9336953,393.762154 54.2961517,394.144692 54.3544816,394.577696 C54.4212335,395.07269 54.7762037,395.492921 54.6816905,396.012213 C54.9848813,396.476679 54.675764,397.06139 54.9795785,397.525233 C55.0569358,398.404634 54.8941112,399.270017 54.8304786,400.14132 C54.5219851,400.367167 54.7609194,400.72821 54.6074525,401.018229 C54.4393251,401.336284 54.3722613,401.720691 54.1604645,402.01912 C53.9424292,402.326272 54.0197865,402.782016 53.6417339,402.996649 C53.7050546,403.25832 53.5681196,403.496627 53.4171481,403.638989 C53.2200118,403.825273 53.2786536,404.18694 53.1061593,404.238651 C52.8166932,404.325563 52.7633541,404.58848 52.6747675,404.74486 C52.4564203,405.130513 52.0187901,405.378789 51.9738729,405.857273 C51.8802955,405.895901 51.7636357,405.907115 51.7165351,405.970353 C51.5499674,406.194019 51.3915097,406.427031 51.2589417,406.672192 C51.1191995,406.931059 50.8088345,407.010806 50.6678445,407.234473 C50.3072597,407.806411 49.7217772,408.15001 49.2875781,408.649054 C49.0570658,408.91384 48.621931,409.011032 48.3836206,409.302297 C48.11287,409.632812 47.6995699,409.715363 47.384526,409.968935 C47.0445282,410.242755 46.5607331,410.306303 46.2603497,410.661117 C45.7438025,410.614078 45.4515292,411.086021 44.992688,411.200969 C44.3654076,411.357972 43.7652647,411.649236 43.1158376,411.690356 C42.563731,411.725557 42.034083,411.934271 41.4735545,411.87851 C41.4604537,411.877264 41.4389309,411.957634 41.4214631,412" id="Fill-1-Copy" transform="translate(40.000000, 397.500000) rotate(-180.000000) translate(-40.000000, -397.500000) "></path>
            </g>
        </g>
    </g>
</svg>
