
<svg width="30px" height="29px" viewBox="0 0 30 29" version="1.1" xmlns="http://www.w3.org/2000/svg" xmlns:xlink="http://www.w3.org/1999/xlink">
    <g stroke="none" stroke-width="1" fill="none" fill-rule="evenodd">
        <g transform="translate(-525.000000, -1764.000000)" fill="#000000">
            <path d="M536.159517,1790.11137 C536.325329,1790.15874 536.416573,1790.30646 536.562878,1790.39746 C537.07416,1790.71626 537.65592,1790.88579 538.207475,1790.94407 C539.197946,1791.04909 540.207609,1790.97399 541.209406,1790.97399 C541.976801,1790.62963 542.825056,1790.56543 543.612587,1790.2541 C544.461472,1789.91847 545.281096,1789.547 546.040625,1789.05679 C546.743204,1788.60305 547.460257,1788.16769 548.051142,1787.55189 C548.256598,1787.33842 548.607416,1787.21439 548.756553,1786.95105 C548.942817,1786.62259 549.204593,1786.37982 549.464796,1786.12989 C549.74608,1785.85939 549.957514,1785.52967 550.182478,1785.22552 C550.492394,1784.80699 550.627057,1784.26567 550.906139,1783.81972 C551.192456,1783.36161 551.360471,1782.85676 551.535094,1782.36561 C551.735201,1781.80311 551.998236,1781.22814 551.992258,1780.62325 C551.984078,1779.82545 552.054556,1779.03234 551.884968,1778.22364 C551.736775,1777.51497 551.429376,1776.849 551.363303,1776.12507 C550.839436,1775.25404 550.661353,1774.22844 550.063861,1773.3811 C549.61236,1772.7413 549.222527,1772.06038 548.653982,1771.50784 C548.358855,1771.22082 548.020307,1770.97743 547.72046,1770.70444 C546.886363,1769.9456 545.959449,1769.3432 545.003274,1768.74922 C543.957742,1768.10008 542.860296,1767.79468 541.657132,1767.75915 C541.281772,1767.74824 540.905784,1767.75666 540.53011,1767.75759 C540.265187,1767.75821 539.993028,1767.79717 539.803932,1767.57404 C539.712059,1767.65724 539.657942,1767.70586 539.604139,1767.75416 C539.399627,1767.55752 539.216194,1767.3107 538.821642,1767.4204 C538.714037,1767.15862 538.391222,1767.14553 538.138885,1767.0695 C537.842813,1766.98006 537.508042,1767.01683 537.211026,1767 C537.067238,1767.17327 536.878457,1767.19882 536.723657,1767.28328 L536.607557,1767.16828 C536.503098,1767.2652 536.39801,1767.36243 536.29009,1767.46247 L535.816879,1767.46247 C535.720916,1767.77224 535.360344,1767.76414 535.150168,1767.97885 C534.94597,1768.18734 534.622211,1768.25871 534.370817,1768.44725 C534.164417,1768.60182 533.919316,1768.77415 533.792204,1768.94836 C533.604367,1769.20608 533.279664,1769.2896 533.143741,1769.55481 C533.021348,1769.79321 532.808655,1769.94996 532.650708,1770.15159 C532.474828,1770.37566 532.459725,1770.78827 532.032136,1770.76085 C532.018292,1770.8774 531.999414,1770.96029 531.937746,1771.04412 C531.550745,1771.57173 531.187656,1772.11398 530.858548,1772.68116 C530.716333,1772.92642 530.548004,1773.13147 530.500179,1773.43283 C530.462423,1773.67123 530.350098,1773.97414 530.166981,1774.09662 C529.873112,1774.29388 529.903946,1774.6077 529.788475,1774.84953 C529.655384,1775.12938 529.554701,1775.45224 529.476986,1775.75983 C529.317152,1776.39183 529.168959,1777.03474 529.161093,1777.69105 C530.053083,1777.82692 530.926824,1777.57668 531.782316,1777.8665 C532.02018,1777.55393 532.279125,1777.81477 532.504403,1777.89361 C532.619874,1777.83128 532.651967,1777.70756 532.786631,1777.73 C532.973838,1777.92415 533.226176,1777.87616 533.465298,1777.87647 C535.744199,1777.87803 538.023099,1777.87304 540.301999,1777.88239 C540.625444,1777.88364 540.917425,1777.83191 541.260377,1777.60379 C540.84852,1777.61781 540.668549,1777.34513 540.518153,1777.11857 C540.315214,1776.81223 539.962823,1776.8677 539.715835,1776.66545 C538.847757,1775.95398 537.968038,1775.2503 537.036719,1774.62547 C536.752918,1774.43506 536.549978,1774.16861 536.256109,1773.99627 C536.094387,1773.90153 535.838274,1773.97975 535.753638,1773.68307 C535.70833,1773.5232 535.447183,1773.42286 535.282,1773.29727 C535.196105,1773.23213 535.148595,1773.15391 535.179114,1773.03455 C535.334859,1772.84633 535.616457,1773.08909 535.778179,1772.88248 L535.778179,1772.29317 L535.994019,1772.07939 C536.197902,1771.91983 536.321239,1772.22305 536.501525,1772.17319 C536.559103,1772.11554 536.605354,1772.05383 536.756694,1772.08842 C537.144638,1772.468 537.726084,1772.64532 538.269143,1772.78275 C538.713722,1772.89556 539.053528,1773.0866 539.391761,1773.3465 C539.652278,1773.54689 539.899581,1773.79682 540.224914,1773.86258 C540.591778,1773.93706 540.546471,1774.45157 540.94354,1774.45438 C541.432168,1774.8782 542.019591,1775.178 542.477699,1775.64888 L542.794851,1775.64888 C543.182796,1776.21513 543.859576,1776.47504 544.262938,1776.98425 L544.53667,1776.98425 C545.394365,1777.74777 546.414096,1778.27911 547.320245,1778.96689 C547.357057,1779.13923 547.325279,1779.32995 547.461516,1779.47517 C547.226798,1779.62943 547.436974,1779.899 547.302311,1780.07944 C547.072313,1780.30725 546.809592,1780.51199 546.620812,1780.76972 C546.425109,1781.03679 546.15232,1781.20788 545.930188,1781.43756 C545.712146,1781.66318 545.490643,1781.88756 545.145174,1781.89473 C544.779883,1781.9019 544.72608,1782.49276 544.286221,1782.32791 C543.975362,1782.60495 543.73498,1782.97456 543.251701,1782.94121 C543.214574,1782.93841 543.174616,1782.9917 543.134342,1783.01569 C542.513253,1783.38685 541.861959,1783.71719 541.283346,1784.14476 C540.993567,1784.35916 540.625444,1784.44424 540.390412,1784.70602 C540.17646,1784.94411 539.740691,1784.88116 539.657312,1785.26883 C539.309956,1785.36856 539.129355,1785.68674 538.862859,1785.86874 C538.477117,1786.13207 538.142975,1786.48173 537.665988,1786.68211 C537.428754,1786.32342 536.974421,1786.46209 536.661045,1786.26265 C536.246985,1785.999 535.782584,1785.84412 535.348388,1785.62441 C535.117446,1785.50755 534.961072,1785.36077 534.864479,1785.18469 C534.959814,1784.82039 535.27319,1784.91793 535.473613,1784.82101 C535.431137,1784.7191 535.300563,1784.69137 535.326678,1784.55643 C535.480535,1784.37817 535.457252,1784.05189 535.773774,1783.97928 C535.895853,1783.95434 535.920079,1784.0896 536.039326,1784.12762 C536.872479,1783.33169 537.912662,1782.78352 538.847442,1782.08919 C539.753591,1781.41637 540.790313,1780.91588 541.907266,1780.25863 C541.485341,1780.25863 541.230172,1780.2954 540.992308,1780.24835 C540.748781,1780.20004 540.522244,1780.48987 540.288155,1780.25863 C540.079238,1780.50296 539.871579,1780.24398 539.661088,1780.24804 C538.509839,1780.26985 537.357332,1780.26923 536.205768,1780.24835 C536.008492,1780.24461 535.917248,1780.42162 535.694172,1780.40417 C535.636908,1780.20565 535.447498,1780.25988 535.278224,1780.25925 C534.727299,1780.25739 534.1748,1780.23526 533.626077,1780.26923 C533.385696,1780.28419 533.221771,1780.1374 533.020404,1780.10125 C532.805509,1780.31628 532.597535,1780.33685 532.389562,1780.11808 C532.334815,1780.16639 532.280069,1780.21469 532.219973,1780.26767 C532.014202,1780.22092 531.829197,1780.00901 531.611784,1780.11746 C531.409159,1780.21843 531.244291,1780.14894 531.05488,1780.11715 C530.860121,1780.08443 530.655294,1780.10967 530.455186,1780.10967 C530.229593,1780.10967 530.004315,1780.11216 529.779036,1780.10905 C529.576726,1780.10624 529.36592,1780.1508 529.212693,1779.97411 C529.119247,1780.08006 529.056634,1780.15112 529,1780.21531 C529.072681,1780.41289 529.209547,1780.55344 529.170847,1780.77283 C529.132461,1780.98942 529.105717,1781.23624 529.172105,1781.43787 C529.467233,1782.33165 529.623921,1783.27497 530.112549,1784.10144 C530.183342,1784.22142 530.303532,1784.33579 530.316747,1784.46169 C530.387854,1785.1395 531.031283,1785.49664 531.22793,1786.09904 C531.808431,1786.56369 532.180959,1787.21221 532.704196,1787.73202 C533.071061,1788.09601 533.548676,1788.32101 533.872121,1788.72272 C534.029438,1788.91842 534.23521,1789.04183 534.453252,1789.13408 C534.637313,1789.21199 534.788967,1789.31296 534.92017,1789.45631 C534.987187,1789.52955 535.082207,1789.58564 535.127514,1789.66947 C535.238266,1789.87391 535.554159,1789.70219 535.571779,1789.82778 C535.607962,1790.088 535.834184,1790.06432 535.956892,1790.1818 C536.066385,1790.2862 536.073936,1790.07273 536.159517,1790.11137 M541.421463,1793 L540.080811,1793 C540.09204,1792.85234 539.988481,1792.8458 539.887418,1792.85234 C538.994378,1792.90873 538.149998,1792.69067 537.315911,1792.40594 C536.880464,1792.25735 536.430669,1792.14583 536.005828,1791.97263 C535.368254,1791.71283 534.695433,1791.56673 534.075014,1791.23403 C533.448046,1790.89822 532.76805,1790.66023 532.177889,1790.24498 C531.644186,1789.86929 530.995383,1789.66027 530.56711,1789.13194 C529.818491,1788.89519 529.502511,1788.10052 528.818773,1787.77998 C528.586389,1787.20554 528.041769,1786.88126 527.685863,1786.39779 C527.350232,1785.94174 527.053279,1785.45048 526.681777,1785.01467 C526.495246,1784.79568 526.418825,1784.48323 526.29,1784.2144 C526.170845,1783.96612 526.011139,1783.72999 525.936277,1783.46957 C525.853305,1783.17955 525.759104,1782.89981 525.632151,1782.62693 C525.516115,1782.37803 525.338006,1782.1095 525.35485,1781.8606 C525.374189,1781.57245 525.107182,1781.30019 525.324281,1781.01796 C524.977109,1780.75006 525.271566,1780.34229 525.093145,1779.99495 C524.931256,1779.68001 525.027641,1779.22551 525.036687,1778.83301 C525.045733,1778.42898 524.932816,1778.00656 525.18797,1777.63898 C525.127457,1777.55487 525.073182,1777.47948 525.004558,1777.38416 C525.251291,1777.14741 525.070063,1776.77609 525.205438,1776.57952 C525.423785,1776.2624 525.248172,1775.95525 525.35329,1775.64841 C525.507693,1775.51633 525.600646,1775.29983 525.6125,1775.11074 C525.629032,1774.84346 525.616867,1774.53163 525.792168,1774.37089 C526.038277,1774.14536 525.887305,1773.87154 526.001158,1773.62856 C526.197982,1773.20895 526.303725,1772.74885 526.654952,1772.41241 C526.608163,1771.98626 527.005867,1771.77069 527.130013,1771.41806 C527.259462,1771.05048 527.491533,1770.72308 527.709881,1770.39287 C528.406408,1769.33902 529.125083,1768.30106 530.0306,1767.4145 C530.791696,1766.66967 531.501013,1765.88123 532.416511,1765.28406 C533.338872,1764.68221 534.288059,1764.25575 535.375116,1764.15015 C535.574748,1764.13084 535.743187,1764.08754 535.882306,1764 C536.6172,1764.21307 537.346168,1764.30092 538.086677,1764.30591 C538.724563,1764.68439 539.495017,1764.58814 540.173453,1764.85666 C540.314755,1764.64826 540.551817,1764.73455 540.760183,1764.75386 C540.835981,1764.76071 540.882145,1764.90339 541.001613,1764.88376 C541.372803,1764.82302 541.688159,1765.01211 542.02379,1765.11272 C542.3772,1765.21895 542.72562,1765.34885 543.085893,1765.42268 C543.661082,1765.54106 544.136143,1765.90335 544.685442,1766.051 C544.922505,1766.11486 545.058192,1766.24103 545.221953,1766.36532 C545.274044,1766.31984 545.325512,1766.27467 545.375731,1766.23075 C545.699509,1766.42918 545.995838,1766.68057 546.338331,1766.80299 C546.754126,1766.95128 547.100051,1767.22167 547.524268,1767.36216 C547.88766,1767.4824 548.189915,1767.79174 548.513693,1768.02475 C548.834352,1768.25558 549.192441,1768.46211 549.46943,1768.71849 C549.93451,1769.14869 550.464782,1769.50132 550.900852,1769.9608 C551.120135,1770.19163 551.344721,1770.41779 551.550279,1770.66015 C551.745544,1770.89098 552.035322,1771.01527 552.209376,1771.26604 C552.236513,1771.30529 552.26833,1771.34112 552.306073,1771.38878 L552.306073,1771.61836 C552.483246,1771.90807 552.735281,1772.06414 552.902161,1772.31647 C553.315461,1772.94105 553.58434,1773.61579 553.801439,1774.32822 C553.933695,1774.76215 554.296152,1775.14469 554.354482,1775.5777 C554.421233,1776.07269 554.776204,1776.49292 554.681691,1777.01221 C554.984881,1777.47668 554.675764,1778.06139 554.979579,1778.52523 C555.056936,1779.40463 554.894111,1780.27002 554.830479,1781.14132 C554.521985,1781.36717 554.760919,1781.72821 554.607452,1782.01823 C554.439325,1782.33628 554.372261,1782.72069 554.160464,1783.01912 C553.942429,1783.32627 554.019786,1783.78202 553.641734,1783.99665 C553.705055,1784.25832 553.56812,1784.49663 553.417148,1784.63899 C553.220012,1784.82527 553.278654,1785.18694 553.106159,1785.23865 C552.816693,1785.32556 552.763354,1785.58848 552.674768,1785.74486 C552.45642,1786.13051 552.01879,1786.37879 551.973873,1786.85727 C551.880296,1786.8959 551.763636,1786.90712 551.716535,1786.97035 C551.549967,1787.19402 551.39151,1787.42703 551.258942,1787.67219 C551.119199,1787.93106 550.808834,1788.01081 550.667845,1788.23447 C550.30726,1788.80641 549.721777,1789.15001 549.287578,1789.64905 C549.057066,1789.91384 548.621931,1790.01103 548.383621,1790.3023 C548.11287,1790.63281 547.69957,1790.71536 547.384526,1790.96893 C547.044528,1791.24275 546.560733,1791.3063 546.26035,1791.66112 C545.743803,1791.61408 545.451529,1792.08602 544.992688,1792.20097 C544.365408,1792.35797 543.765265,1792.64924 543.115838,1792.69036 C542.563731,1792.72556 542.034083,1792.93427 541.473554,1792.87851 C541.460454,1792.87726 541.438931,1792.95763 541.421463,1793" id="Fill-1-Copy" transform="translate(540.000000, 1778.500000) scale(-1, 1) rotate(-180.000000) translate(-540.000000, -1778.500000) "></path>
        </g>
    </g>
</svg>
