
<svg width="32px" height="31px" viewBox="0 0 32 31" version="1.1" xmlns="http://www.w3.org/2000/svg" xmlns:xlink="http://www.w3.org/1999/xlink">
    <g stroke="none" stroke-width="1" fill="none" fill-rule="evenodd">
        <g transform="translate(-567.000000, -13474.000000)" fill="#FFFFFF">
            <g transform="translate(182.000000, 13414.000000)">
                <path d="M401.611548,60.5316522 C401.972591,60.5166957 402.29607,60.5886957 402.559722,60.846087 C403.440417,60.8502609 404.207374,61.2853913 405.032417,61.4972174 C405.4592,61.6067826 405.922157,61.636 406.225461,62.0252174 C406.799722,61.9316522 407.223374,62.310087 407.668591,62.5452174 C408.103722,62.7751304 408.58407,62.8794783 409.005287,63.1354783 C409.650504,63.5278261 410.161809,64.1226087 410.897809,64.377913 C410.968765,64.4022609 411.052591,64.4815652 411.069983,64.5507826 C411.171548,64.9601739 411.610852,65.0092174 411.8432,65.2909565 C412.092939,65.5935652 412.379896,65.873913 412.741983,66.0926957 C412.995896,66.246087 413.2992,66.5076522 413.426504,66.7726957 C413.604939,67.1427826 413.933287,67.3316522 414.159722,67.6290435 C414.381287,67.9198261 414.508939,68.2617391 414.727374,68.5622609 C415.148591,69.1417391 415.537113,69.7497391 415.793809,70.4405217 C416.007026,71.0147826 416.239722,71.5834783 416.449809,72.1608696 C416.620591,72.6311304 416.784417,73.0951304 416.776417,73.6029565 C416.771896,73.9073043 416.770852,74.212 416.778504,74.5163478 C416.780939,74.6026087 416.836591,74.6669565 416.941635,74.6478261 L416.941635,76.4746087 C416.712417,76.4770435 416.783026,76.6523478 416.777809,76.7726957 C416.760417,77.1553043 416.809809,77.5511304 416.725983,77.9170435 C416.627896,78.3466087 416.48633,78.7615652 416.429635,79.2067826 C416.378504,79.609913 416.235548,80.0074783 416.088765,80.3904348 C415.914504,80.844 415.6352,81.2443478 415.551026,81.7486957 C415.466157,82.2572174 415.072417,82.6509565 414.859896,83.1191304 C414.754157,83.3521739 414.67207,83.6189565 414.501983,83.7970435 C413.70233,84.6342609 413.254678,85.7765217 412.229635,86.4158261 C412.03207,86.8770435 411.607026,87.1031304 411.255722,87.4193043 C410.600417,88.0092174 409.816765,88.3521739 409.06407,88.7629565 C408.520417,89.06 407.907548,89.1765217 407.346504,89.4269565 C406.900939,89.625913 406.419548,89.7626087 405.963548,89.8829565 C405.576417,89.9852174 405.156591,90.1827826 404.714504,90.0923478 C404.250852,89.9973913 403.820939,90.2436522 403.371548,90.249913 C402.04633,90.2683478 400.720765,90.2565217 399.484591,90.2565217 C399.223026,90.118087 399.041113,90.0213913 398.849809,89.9201739 C398.60007,90.0547826 398.365983,90.214087 398.065113,89.9445217 C397.993809,89.8805217 397.829635,89.7493913 397.653287,89.7546087 C397.167026,89.769913 396.771896,89.4787826 396.330852,89.3476522 C395.857809,89.2071304 395.4032,89.0593043 394.968417,88.8182609 C394.800765,88.7257391 394.613635,88.6314783 394.401461,88.5817391 C393.415374,88.3514783 392.551374,87.8071304 391.698157,87.308 C390.88807,86.8346087 390.03033,86.3761739 389.41433,85.5991304 C389.250852,85.3928696 388.956591,85.252 388.732591,85.0624348 C388.003896,84.4446957 387.535026,83.612 386.9392,82.8871304 C386.698852,82.5942609 386.442852,82.249913 386.35207,81.8050435 C386.274157,81.4231304 385.953113,81.0909565 385.744417,80.734087 C385.719722,80.6916522 385.723548,80.6321739 385.715896,80.58 C385.5952,79.7813913 385.119026,79.057913 385.215374,78.2126957 C385.223722,78.1361739 385.188939,78.0631304 385.163896,77.9866087 C384.919026,77.2408696 384.993461,76.4565217 385.0992,75.7184348 C385.183374,75.1281739 385.273113,74.5267826 385.367374,73.9333913 C385.426157,73.5612174 385.407026,73.1897391 385.715896,72.9048696 C385.715896,72.6885217 385.645983,72.4370435 385.72807,72.2526957 C386.050852,71.5264348 386.346852,70.7928696 386.599374,70.0387826 C386.687374,69.7747826 386.897113,69.5528696 386.996591,69.2909565 C387.281113,68.5386087 387.604591,67.8137391 388.113113,67.1775652 C388.338852,66.8951304 388.527722,66.5786087 388.700939,66.26 C388.949983,65.8033043 389.276591,65.3977391 389.535722,64.9473043 C389.655374,64.74 389.925287,64.6109565 390.0192,64.3984348 C390.1392,64.1271304 390.443896,64.1288696 390.581287,63.9 C390.701635,63.6996522 390.786157,63.4777391 390.980243,63.3128696 C391.3072,63.0356522 391.5712,62.6836522 391.973635,62.4968696 C392.266504,61.8572174 392.943374,61.6026087 393.37607,61.1013913 C393.60807,60.8328696 393.8752,60.5946087 394.106157,60.3629565 C394.650504,60.3876522 395.185113,60.2586087 395.597983,60.6996522 C395.812939,60.6996522 396.111722,60.7907826 396.238678,60.681913 C396.547896,60.4161739 396.871722,60.5765217 397.182678,60.54 C397.5232,60.5 397.820939,60.3156522 398.194157,60.3525217 C398.769809,60.4095652 399.359374,60.4102609 399.935374,60.3556522 C400.5152,60.3006957 401.046678,60.5546087 401.611548,60.5316522 Z M401.140939,63.0053913 C400.536765,62.9730435 399.98233,63.2102609 399.393461,63.2224348 C399.331896,63.2238261 399.272765,63.3173913 399.129113,63.438087 C398.91207,63.0693913 398.600417,63.1233043 398.38407,63.2474783 C397.627896,63.6815652 396.755548,63.7125217 395.9552,63.996 C395.165635,64.276 394.800417,64.3928696 394.239722,65.0394783 C394.137113,65.158087 394.050157,65.3302609 393.87207,65.3434783 C393.705809,65.3556522 393.620243,65.4728696 393.555548,65.5747826 C393.098852,66.2895652 392.592417,66.9636522 392.027896,67.5977391 C391.783722,67.8725217 391.4752,68.1573913 391.387896,68.4885217 C391.251548,69.0053913 390.930852,69.4161739 390.756939,69.8892174 C390.572243,70.3925217 390.129113,70.8078261 390.200417,71.4022609 C389.896765,71.7469565 389.839026,72.1942609 389.706852,72.6078261 C389.625461,72.8627826 389.626852,73.1473043 389.527374,73.3921739 C389.39207,73.7233043 389.473461,74.1198261 389.333287,74.3869565 C389.16633,74.7052174 389.325287,75.0944348 389.037635,75.3466087 C389.253635,75.6881739 388.975026,76.0217391 389.02407,76.3730435 C389.09433,76.8721739 389.016765,77.3775652 389.184417,77.8850435 C389.313461,78.2756522 389.230678,78.7107826 389.34407,79.1441739 C389.69433,80.4826087 390.042852,81.3326957 390.963548,82.4575652 C391.087722,82.6092174 390.948939,82.7845217 391.011896,82.8485217 C391.290157,83.1267826 391.48807,83.3636522 391.725287,83.5507826 C391.967722,83.7424348 391.986157,84.1806957 392.252939,84.2245217 C392.629983,84.2871304 392.503026,84.7897391 392.92807,84.8050435 C393.173983,84.8137391 393.349983,85.1667826 393.607722,85.3271304 C393.814678,85.4558261 393.849113,85.86 394.299896,85.7577391 C394.436591,85.9278261 394.591026,86.1194783 394.707548,86.2645217 C394.942678,86.2829565 395.08807,86.2547826 395.236939,86.3932174 C395.541635,86.6756522 395.937461,86.8210435 396.298852,87.0168696 C396.681461,87.2238261 397.0992,87.1469565 397.423026,87.310087 C397.759722,87.4798261 398.101287,87.3006957 398.360765,87.4509565 C398.675896,87.633913 398.984765,87.6085217 399.297461,87.5935652 C400.2432,87.548 401.203896,87.7553043 402.133635,87.4335652 C402.816417,87.5375652 403.440417,87.2446957 404.06233,87.0714783 C404.56807,86.9306087 405.060591,86.7827826 405.555896,86.7507826 C405.700939,86.6366957 405.820939,86.4610435 405.954504,86.4502609 C406.611896,86.3966957 407.105113,86.0193043 407.647722,85.7121739 C407.893983,85.5723478 408.060939,85.2732174 408.376417,85.2798261 C408.73607,85.2871304 408.757287,84.9744348 408.919722,84.798087 C409.15833,84.5925217 409.605287,84.6613913 409.650852,84.1893913 C409.658852,84.1045217 409.791722,84.0255652 409.876243,83.9549565 C410.212591,83.6756522 410.642157,83.1730435 410.794852,82.8554783 C410.8832,82.6711304 410.908243,82.4231304 411.047374,82.3024348 C411.679722,81.7546087 411.796939,80.9469565 412.106852,80.2453913 C412.301287,79.8057391 412.423026,79.321913 412.493287,78.8196522 C412.54407,78.4568696 412.490852,78.0227826 412.653635,77.7393043 C412.861287,77.3789565 412.637635,76.9928696 412.817113,76.7285217 C413.055374,76.3782609 412.930852,76.0398261 412.946852,75.7017391 C412.973983,75.1128696 412.921113,74.5316522 412.813983,73.9410435 C412.706504,73.3497391 412.599722,72.758087 412.449113,72.1768696 C412.386157,71.9337391 412.162157,71.7194783 412.143374,71.4812174 C412.119374,71.1772174 412.07833,70.8551304 411.869635,70.6867826 C411.586852,70.4586087 411.65607,70.1066087 411.429983,69.8544348 C411.106157,69.4933913 410.888765,69.036 410.631026,68.6165217 C410.508243,68.4165217 410.314157,68.2822609 410.220939,68.0391304 C410.1392,67.8269565 409.917635,67.609913 409.705113,67.5215652 C409.442852,67.4126957 409.620243,67.0154783 409.267548,67.0012174 C408.991374,66.990087 409.019896,66.6457391 408.828243,66.5055652 C408.288765,66.1114783 407.74407,65.7215652 407.276591,65.2370435 C407.144765,65.1003478 407.017461,64.9351304 406.852939,64.8582609 C406.017461,64.4690435 405.338504,63.7685217 404.368417,63.6293913 C404.247722,63.612 403.991374,63.5626087 403.904765,63.3566957 C403.629287,63.3566957 403.273809,63.4648696 403.09433,63.3330435 C402.771548,63.0958261 402.45433,63.193913 402.150678,63.2067826 C401.787896,63.222087 401.495026,63.0248696 401.140939,63.0053913 Z M406.296209,68.5691478 C406.376209,68.7110609 406.35673,68.9204522 406.530643,69.058887 C406.608209,69.0248 406.694122,68.986887 406.783861,68.946887 C406.934817,69.0394087 407.087165,69.1329739 407.242991,69.2286261 C407.276383,69.3482783 407.232557,69.4999304 407.370296,69.5872348 C407.228383,69.7917565 407.087165,69.9962783 406.9536,70.1889739 C407.022817,70.2884522 407.069078,70.354887 407.114991,70.4213217 C406.664209,70.8592348 406.312904,71.3642783 406.116035,72.0039304 C406.123339,72.014713 406.166817,72.0797565 406.20647,72.1385391 C405.642991,72.5416696 405.6016,73.4241043 404.834991,73.6369739 C404.482296,74.226887 404.071861,74.7646261 403.432904,75.1232348 C403.671165,75.2762783 403.928209,75.2568 404.080557,75.5072348 C404.18873,75.6842783 404.461426,75.7538435 404.643339,75.8943652 C405.378991,76.4613217 406.07673,77.0856696 406.850296,77.5945391 C407.458991,77.994887 407.975513,78.498887 408.559513,78.922887 C408.807165,79.1030609 408.991861,79.3969739 408.950817,79.7698435 C408.944209,79.7712348 408.844383,79.7917565 408.738991,79.8129739 C408.664904,79.9354087 408.853078,79.9677565 408.808209,80.1583652 C408.166817,80.5461913 408.194296,81.414713 407.727513,82.0001043 C407.767861,82.0961043 407.805078,82.1848 407.855513,82.3058435 C407.598817,82.2710609 407.35847,82.238713 407.117078,82.2063652 C406.607861,81.8380174 406.0656,81.4901913 405.551513,81.110713 C405.034643,80.7291478 404.438817,80.4529739 403.990122,79.9726261 C403.562991,79.5152348 402.954643,79.3110609 402.466296,78.9319304 C401.960557,78.5399304 401.453774,78.1420174 400.869774,77.7955826 C400.688904,78.1861913 400.389426,78.3698435 400.108035,78.5646261 C399.860035,78.7357565 399.887861,79.1013217 399.519861,79.2241043 C399.229426,79.3211478 399.185252,79.7889739 398.868383,79.962887 C398.554643,80.1350609 398.477774,80.5124522 398.227687,80.7420174 C397.993252,80.9576696 397.681252,81.0832348 397.541078,81.4088 C397.39673,81.7441043 397.023861,81.8766261 396.810643,82.1399304 C396.602991,82.3959304 396.324035,82.5646261 396.126817,82.8070609 C395.922643,83.0578435 395.618296,83.186887 395.462122,83.4860174 C395.203339,83.4512348 394.963687,83.418887 394.708035,83.3841043 C394.619687,83.1931478 394.333426,83.0769739 394.390817,82.7754087 C394.174122,82.6912348 394.046122,82.4641043 393.786296,82.4230609 C394.077426,82.1712348 393.962296,81.8140174 394.0896,81.5159304 C394.16647,81.5103652 394.243687,81.5051478 394.389774,81.494713 C394.322643,80.998713 394.780035,80.7044522 394.908383,80.2491478 C395.039513,79.7841043 395.647513,79.6460174 395.766122,79.0661913 C396.4336,78.6780174 396.980035,78.062713 397.462122,77.386887 C397.594991,77.2001043 397.78247,77.0881043 397.959165,76.9701913 C398.2576,76.7722783 398.439861,76.4874087 398.684035,76.2115826 C397.816557,75.6421913 396.970643,75.1256696 396.1696,74.5475826 C395.627687,74.1562783 395.06247,73.8049739 394.506991,73.4373217 C394.002643,73.1034087 393.687165,72.5569739 393.165078,72.2359304 C393.101078,72.1966261 393.147339,71.9799304 393.026991,71.8912348 C393.085078,71.7534957 393.207861,71.8345391 393.304904,71.7990609 C393.445426,71.6494957 393.381774,71.4411478 393.432904,71.2616696 L393.802643,70.9649739 L393.802643,70.9649739 C393.760209,70.9093217 393.72647,70.8651478 393.687513,70.8140174 C393.8176,70.2181913 394.226991,69.7882783 394.626296,69.3350609 C395.006817,69.3385391 395.368557,69.4254957 395.686122,69.7319304 C395.880557,69.9197565 396.198817,69.9733217 396.417252,70.1441043 C397.974122,71.3635826 399.658643,72.4004522 401.290991,73.5601043 C401.483339,73.1980174 401.906296,73.0501913 402.144557,72.6710609 C402.3776,72.2995826 402.805426,72.0564522 403.086122,71.706887 C403.367861,71.3562783 403.731687,71.0968 404.007861,70.7378435 C404.530296,70.0595826 405.149426,69.4574957 405.661426,68.7684522 C405.830122,68.5413217 406.0176,68.450887 406.296209,68.5691478 Z" id="Combined-Shape"></path>
            </g>
        </g>
    </g>
</svg>
