
<svg width="236px" height="45px" viewBox="0 0 236 45" version="1.1" xmlns="http://www.w3.org/2000/svg" xmlns:xlink="http://www.w3.org/1999/xlink" preserveAspectRatio="none">
    <g stroke="none" stroke-width="1" fill="none" fill-rule="evenodd">
        <g transform="translate(-237.000000, -13690.000000)" fill="#DA4A9A">
            <g transform="translate(182.000000, 13414.000000)">
                <path d="M74.1460823,315.651455 C74.0691521,313.996969 73.4748488,313.113507 72.9887078,312.122396 C71.704733,311.560925 70.429447,313.081974 69.1329002,312.144053 C68.8924102,311.542286 68.4216524,311.075437 68.6215796,310.013982 C68.8745937,309.913609 69.1590536,309.80362 69.4425291,309.693455 C69.614771,309.531228 69.5834139,309.378311 69.4200427,309.106967 C68.3783631,307.37817 67.058964,306.939049 65.6902149,306.734926 C65.3091353,305.718578 64.5266872,305.576968 64.1376737,304.47962 C63.8528705,303.676902 61.2907765,302.008096 60.5296646,301.778866 C58.8423286,301.270564 57.3251003,300.489594 56.7778196,297.169532 C56.5793928,295.967421 55.8465222,295.248821 55,294.662289 C56.6338573,291.090528 58.6600232,292.880231 60.5668019,292.720009 C60.57851,291.596111 60.8969277,290.630346 60.5070687,289.353366 C60.2247928,288.429188 60.3422836,287.236159 60.8507649,286.109661 C61.2257158,285.275917 61.665583,284.470713 62.1078446,283.787849 L61.5422142,282.601349 C62.5524147,282.858189 63.3395331,282.521453 63.9056677,281.315524 C65.3513049,281.596045 66.7816885,280.512489 68.2375713,281.223227 C69.6781185,281.924449 70.9229557,281.669563 72.6240627,280.392288 C74.7963627,280.928049 77.0286895,280.717675 79.2866175,279.480708 C80.1012153,280.503462 81.1825926,280.139765 82.1165939,280.486265 L82.9324439,279.36224 C83.9555444,279.619693 84.8202755,280.475317 86.0494191,279.701193 C87.4834978,278.799473 89.2368706,279.688706 90.7475121,278.70755 C91.3842803,278.291439 91.3517298,279.80105 92.0955843,279.407475 C93.2632998,278.789994 94.6524986,279.404147 95.812413,278.461866 C97.0098329,277.492429 98.270731,279.490704 99.3958326,278.000368 C100.804092,280.255272 102.46688,277.487884 103.946325,278.654925 C104.272731,278.913093 104.662078,278.571263 105.033414,278.42432 C105.791472,278.123025 106.57546,278.110828 107.428373,278.336155 C108.889354,278.722706 110.482545,278.531806 111.945944,278.170386 C113.034428,277.901087 114.184742,278.467442 115.248241,277.490989 C116.315781,276.513565 117.514053,276.915787 118.624565,277.320942 C119.111149,277.499387 119.370382,276.299533 119.790081,277.012928 C120.241336,277.779375 120.728747,277.944422 121.230383,277.299267 C121.684569,276.713356 122.144954,277.058132 122.576152,277.182649 C123.042579,277.316852 123.212166,276.456544 123.613621,276.514786 C125.772821,279.372995 128.289098,276.33831 130.470397,277.823883 C130.843512,277.30983 131.151256,276.887372 131.579849,276.296885 C132.552004,276.895724 133.811538,275.903529 134.759805,277.581757 C136.3223,275.986768 138.062579,278.698951 139.64299,277.007266 C139.854029,276.780862 140.258153,277.134202 140.56956,277.103533 C141.539733,277.009491 142.552873,278.233684 143.484227,276.850933 C144.225505,278.287268 145.153283,276.318023 145.946734,277.232016 C146.064813,277.366577 146.35682,277.06999 146.5673,276.965398 C147.890329,276.314735 149.23146,275.902666 150.595427,276.490295 C151.187651,276.746893 152.006124,275.967061 152.204523,276.315785 C152.812832,277.391391 153.054338,275.528012 153.629912,276.118583 C154.121344,276.6213 154.859369,276.499291 155.490427,276.51393 C156.043878,276.528237 156.469971,276.912597 156.874476,277.469192 C157.225339,276.654845 157.740102,276.795998 158.160484,277.047266 C158.901256,277.492977 159.475966,276.583201 160.136752,276.503256 C160.31018,276.837355 160.465005,277.134263 160.550294,277.300211 C161.883001,276.541219 163.253163,276.899677 164.570161,276.588273 C165.219543,276.435174 165.984941,276.514473 166.339124,277.434577 C169.28187,277.178532 172.1455,277.397679 175.139754,277.27445 C175.234899,277.570845 175.741253,278.089776 176.130132,277.739397 C177.122871,276.84511 178.120284,277.196176 179.061696,277.567706 C180.028287,277.950511 180.798751,276.787893 181.765283,277.091106 C182.623381,277.361383 183.498363,277.583883 184.487877,277.112325 C185.487545,276.637503 186.796911,276.707402 187.805407,278.135644 C188.160934,277.342451 188.961039,277.939308 189.275708,276.776459 C189.678789,278.177716 190.505887,278.240957 190.953881,277.916387 C191.81029,277.295729 192.626445,277.793864 193.420153,277.5599 C194.235152,277.319584 194.901368,277.699473 195.638241,277.998869 C196.324652,278.277389 197.058176,278.212145 197.756186,278.431783 C198.462952,278.654681 199.085295,277.988781 199.720012,277.799194 C201.214591,277.351916 202.657417,277.484625 204.068156,277.975637 C205.85176,278.601054 207.592675,277.549323 209.361085,278.01794 C211.078619,278.47238 212.834291,279.0183 214.54586,278.82825 C215.381595,278.735566 216.287811,280.01514 217.100634,278.650137 C217.207235,278.471093 217.660239,278.548713 217.772836,278.772034 C218.39499,279.99404 218.967922,280.015217 219.78561,279.167516 C220.215046,278.724489 220.8172,279.351985 221.161478,280.158566 C221.402488,280.220288 221.589758,280.104773 221.813857,279.924728 C223.071886,278.908559 224.355122,280.448579 225.67727,279.796065 C226.838151,279.224773 227.971675,279.740716 229.181798,280.563283 C230.388968,281.385322 231.896119,281.878336 233.272846,280.954507 C233.611225,280.728862 233.893959,281.001232 234.171266,280.845941 C234.790892,280.49788 235.151466,282.184462 235.947183,281.27357 C236.349885,280.812217 237.166626,281.478085 237.795715,281.492372 C238.772427,281.518025 239.778442,282.45479 240.72722,281.24109 C240.820046,281.123924 241.034798,281.272386 241.190895,281.307072 C242.345377,281.564313 243.295356,283.263166 244.651358,282.320392 C245.840968,281.493482 247.116743,282.461553 248.351155,282.633187 C249.077493,282.732593 249.958682,282.290768 250.491596,283.749105 C250.569066,283.961065 250.961659,283.985552 251.172917,283.884485 C253.843999,282.613032 256.42476,284.462965 259.05566,284.518584 C259.764324,284.533554 260.517333,284.539523 261.168423,284.938719 C261.871323,285.369191 262.53014,284.16121 263.202052,285.077174 C263.86583,285.979832 264.487646,284.661948 265.125399,284.809855 C265.714039,284.947287 266.416551,284.546319 266.870211,285.563793 C267.162254,286.217109 267.869514,286.174259 267.90986,286.052789 C268.535093,284.147969 269.373014,286.968014 269.98256,285.735983 C270.59653,286.961605 271.287658,285.585 271.994123,285.909436 C272.966833,286.354292 273.708226,287.353796 274.633389,287.923913 C274.974574,287.217896 275.505604,287.353492 276.04343,287.58851 C276.272598,287.890246 276.139704,288.33381 276.204079,288.677193 C276.425556,289.844482 275.367626,289.973628 275.6143,291.345222 C277.105971,291.943834 278.851247,292.110308 279.882232,294.721053 C281.407226,295.440762 282.894152,296.27727 283.883355,298.597775 C285.125523,299.175476 286.514,298.705838 287.840825,299.894691 C287.824508,299.917171 288.004619,299.692009 288.179187,299.476016 C288.326292,299.752917 288.475261,300.031846 288.62335,300.308924 C288.762589,300.11709 288.88551,299.947737 289.005168,299.78288 C289.829987,300.414635 290.513919,301.329363 290.993519,302.73245 C290.992898,302.742498 291.013374,302.878231 290.984574,302.925571 C290.091975,304.357583 289.790628,306.174704 289.811324,308.1273 C289.4083,309.028833 288.856851,309.368767 288.276175,309.634052 C288.389809,309.872797 288.488364,310.081755 288.69988,310.524258 C287.426843,311.718918 286.248421,313.089659 284.642266,313.699853 C285.011735,316.337922 283.356904,317.752157 283.220999,320.37097 L279.351552,319.679035 C278.379121,321.130636 277.344956,321.116722 276.247826,320.881589 C274.285043,320.466261 272.311344,320.211531 270.349492,319.781131 C269.693607,319.636754 269.06756,319.460462 268.395163,318.906759 C267.165906,317.894517 265.724652,317.96189 264.497862,319.535635 C264.357805,319.273539 264.206089,318.990733 264.091784,318.778959 C263.494251,319.381567 262.886678,318.986767 262.374853,318.685283 C261.561393,318.207949 260.810104,317.755278 259.96313,318.448739 C259.285085,319.001392 258.41762,318.834419 257.929812,318.305259 C256.714359,316.989012 255.547303,316.886992 254.231575,317.500016 C253.829884,317.687248 253.572066,316.81824 253.11232,316.656447 C251.490358,316.08872 249.924085,317.164908 248.32127,316.915543 C248.119273,316.882808 247.965459,317.439464 247.627474,316.901538 C247.163633,316.161624 246.430139,315.984744 245.920987,316.574371 C245.275546,317.324189 244.614775,317.00115 244.123411,316.67454 C241.62991,315.02308 239.101619,314.740292 236.470518,315.316208 C235.554493,315.516447 234.588715,314.959385 233.641787,314.886569 C231.961998,314.755511 230.320994,313.867746 228.578916,314.680526 C227.726424,315.076686 226.698789,314.522109 225.76526,314.248503 C224.87867,313.988369 224.187157,314.001864 223.120731,314.703492 C222.347957,313.293696 221.127622,312.958644 220.19587,313.413439 C218.989142,314.001932 217.910531,313.467024 216.777575,313.489627 C216.109012,313.502145 215.430954,312.798427 214.752947,313.769313 C214.535751,314.079277 213.830451,314.025963 213.647697,313.681731 C212.507598,311.532349 211.17943,313.748321 209.989322,313.117281 C209.86011,313.050151 209.6248,313.556676 209.399882,313.846634 C208.688401,313.619507 208.127521,311.695613 207.182604,313.201237 C206.924334,313.612222 206.385116,313.448071 206.101126,313.034938 C204.774439,311.102787 203.565128,312.329161 202.219229,313.285594 C201.542761,312.974987 200.750039,313.209127 199.937723,312.213872 C198.997845,311.060349 197.75378,312.945944 196.608441,312.395718 C196.182263,313.333747 195.611575,312.921837 195.086197,312.839742 C194.140868,312.69271 193.130945,312.076958 192.271302,312.459987 C191.388191,312.852365 190.800456,311.846473 190.047662,311.933671 C189.380867,312.014234 188.645708,311.203792 188.068382,312.397561 C187.584564,310.756669 186.941456,312.644747 186.314812,312.172034 C185.708218,311.713067 184.929471,311.817635 184.228634,311.853167 C183.978047,311.865926 183.791614,312.628402 183.285739,312.246707 C183.229105,312.148532 183.068791,311.876041 182.797954,311.411078 C181.644005,312.434007 180.316465,311.353392 179.097646,311.734843 C177.933741,312.097328 176.679651,311.454846 175.419411,312.651794 C174.950347,311.448698 174.05629,311.679956 173.253773,311.331571 C172.442501,310.979926 171.830147,312.096316 171.027536,311.84612 C170.388743,311.650617 169.701844,311.138345 169.005495,312.083938 C168.736031,312.450592 168.105351,312.043193 167.638363,311.99863 C166.941869,311.931653 166.032405,311.381275 165.595777,311.924609 C164.873469,312.82323 164.621012,310.546422 164.065747,311.640849 C163.50613,312.741271 162.707722,312.00418 162.097339,312.025409 C160.672092,312.075325 159.253369,312.084078 157.839237,312.437376 C157.253766,311.265953 156.706698,313.049294 156.004094,312.452939 C155.454745,311.985582 154.629131,311.721114 153.977048,312.352911 C153.275183,313.033376 152.607808,312.446707 151.929035,312.41507 C151.219541,312.381325 150.440678,311.795039 149.818719,312.132523 C148.250664,312.979808 146.732936,311.836399 145.234301,312.123789 C142.966145,312.559727 140.7596,312.014456 138.530019,311.664866 C137.727834,311.536658 137.083108,312.178237 136.425698,312.912368 L131.754013,312.076977 C131.565304,312.312454 131.385296,312.535941 131.217151,312.744617 C131.056473,312.461902 130.910199,312.203774 130.598739,311.655352 C130.300706,312.323369 130.016243,312.965028 129.885873,313.254961 C129.317201,313.358151 129.172166,313.047755 128.993344,312.639883 C127.847239,313.342502 126.547876,313.320109 125.41387,313.198601 C123.559072,313.00069 121.72987,313.403369 119.886683,313.275264 C118.862046,313.20379 117.782161,313.462775 116.772218,313.749505 C116.252456,313.898692 115.721772,314.144132 115.227417,313.962604 C111.99525,312.781841 108.69212,313.974136 105.461011,313.033999 C105.080952,313.531573 104.71058,314.017332 104.40962,314.410524 C103.358065,314.581448 102.394427,313.635329 101.386006,314.702906 C100.948439,315.164797 100.400973,314.328655 99.9656306,313.642941 C99.3028055,314.078098 98.6192589,314.526481 97.9647222,314.956347 C97.5369594,315.001766 97.4676324,314.335786 97.2023507,313.990341 C96.6828842,313.409803 96.4806604,314.846743 95.9622108,314.620269 C94.1197389,313.820083 92.4120017,315.108025 90.679963,315.790528 C90.2790464,315.949114 89.7609991,316.151097 89.5835337,315.850141 C88.3323637,313.726614 87.2252374,315.199845 86.0801856,316.078748 C86.0175041,316.126802 85.9241423,316.05931 85.7548356,316.029035 C85.6440572,315.856835 85.4787704,315.600387 85.2170063,315.198002 C84.1252778,316.792513 82.6417892,316.158113 81.1046055,316.392893 C81.0817026,316.344774 80.8060718,315.570787 80.4113895,315.918435 C79.137259,317.050251 77.7307821,315.588092 76.4223563,316.727321 C75.7273228,317.329426 75.1464983,315.422284 74.1460823,315.651455" id="Fill-1"></path>
            </g>
        </g>
    </g>
</svg>
