<?xml version="1.0" encoding="UTF-8"?>
<svg width="30px" height="44px" viewBox="0 0 30 44" version="1.1" xmlns="http://www.w3.org/2000/svg" xmlns:xlink="http://www.w3.org/1999/xlink">
    <g id="Desktop-FINAL" stroke="none" stroke-width="1" fill="none" fill-rule="evenodd">
        <g id="Home" transform="translate(-987.000000, -1259.000000)">
            <path d="M1008.74013,1276.65416 C1008.68061,1276.81236 1008.72683,1276.97567 1008.6428,1277.10544 C1008.56787,1277.2199 1008.41521,1277.28405 1008.45512,1277.46486 C1008.49574,1277.65004 1008.29126,1277.55089 1008.22964,1277.68649 C1007.97894,1278.24203 1007.54478,1278.67289 1007.19254,1279.15917 C1007.06369,1279.33633 1006.89212,1279.4836 1006.69255,1279.60681 C1006.48037,1279.73731 1006.28429,1279.92394 1006.08472,1280.08361 C1005.72688,1280.36866 1004.90686,1280.6982 1004.36205,1280.79078 C1004.09245,1280.83671 1003.82775,1280.87827 1003.55885,1280.87463 C1003.38658,1280.87171 1003.26053,1281.12177 1003.04415,1280.92347 C1002.9055,1280.79662 1002.61558,1280.96794 1002.50214,1280.85932 C1002.33548,1280.69965 1002.10439,1280.88119 1001.98534,1280.6807 C1001.03998,1280.55166 1000.23397,1280.04351 999.401351,1279.6243 C998.732595,1279.28675 998.164677,1278.78444 997.627571,1278.24203 C997.135982,1277.74554 996.789349,1277.16595 996.509242,1276.52511 C996.408403,1276.29401 996.353782,1276.04467 996.21723,1275.82596 C996.082078,1275.61016 996.173813,1275.30833 996.001547,1275.09618 C996.002948,1274.62084 996.000847,1274.14622 996.012751,1273.67161 C996.014152,1273.61693 996.121993,1273.5834 996.099585,1273.458 C996.059669,1273.40624 996.027457,1273.36614 996.006449,1273.3399 C995.965833,1273.197 996.131097,1273.16492 996.112189,1273.03588 C996.098184,1272.93819 996.108688,1272.83904 996.159808,1272.72968 C996.315968,1272.39505 996.357283,1272.005 996.615683,1271.71849 C996.588372,1271.37729 996.76414,1271.11411 996.956013,1270.87935 C997.239622,1270.53087 997.401384,1270.10073 997.726309,1269.77703 C998.071541,1269.43219 998.435681,1269.12672 998.871948,1268.93643 C999.234687,1268.77823 999.540004,1268.50921 999.918149,1268.38454 C1000.08972,1268.32768 1000.25778,1268.26279 1000.43285,1268.2154 C1000.59671,1268.17093 1000.75287,1268.12209 1000.92163,1268.12573 C1001.15973,1268.13083 1001.3628,1267.96461 1001.617,1268.0069 C1001.89851,1268.05428 1002.18282,1268.01637 1002.47343,1268.1075 C1002.72203,1268.18624 1003.01754,1268.09948 1003.22622,1268.34007 C1003.55184,1268.29706 1003.78573,1268.51504 1004.05394,1268.64481 C1004.24861,1268.73886 1004.472,1268.66887 1004.68978,1268.77021 C1005.07913,1268.95174 1005.5168,1269.02465 1005.81441,1269.38699 C1005.88234,1269.46937 1005.99088,1269.49051 1006.07421,1269.53134 C1006.33331,1269.65746 1006.58541,1269.75589 1006.69675,1270.07667 C1006.76187,1270.26476 1007.10501,1270.2079 1007.0938,1270.49952 C1007.52097,1270.74666 1007.74925,1271.19139 1008.00415,1271.58361 C1008.30247,1272.04219 1008.49364,1272.57658 1008.72543,1273.08108 C1008.81086,1273.26699 1008.84097,1273.48716 1008.86058,1273.67599 C1008.9124,1274.17028 1008.99643,1274.66093 1009,1275.16617 C1009.00273,1275.68962 1008.9173,1276.18465 1008.74013,1276.65416 M1016.86291,1271.55428 C1016.93918,1271.24487 1016.74742,1270.86797 1016.67613,1270.54052 C1016.40596,1269.28619 1016.22845,1267.99777 1015.63392,1266.81962 C1015.09641,1265.75508 1014.19249,1264.92777 1013.58013,1263.9648 C1012.6256,1263.73157 1011.845,1263.32193 1011.26758,1262.61891 C1010.67732,1262.49862 1010.10274,1262.47122 1009.58377,1262.05623 C1008.66417,1261.32047 1007.69894,1260.6228 1006.1955,1259.87368 C1005.84334,1259.79549 1005.10551,1259.8563 1004.51312,1259.33706 C1004.30567,1259.15529 1003.83019,1259.27625 1003.52864,1259.14995 C1002.75732,1258.82784 1001.98599,1259.1152 1001.25173,1259.17935 C999.736878,1259.30966 998.182105,1259.41592 996.80555,1260.16571 C995.337747,1260.96562 993.611172,1261.41804 992.685864,1262.937 C992.582498,1263.10608 992.305191,1263.17157 992.146221,1263.32059 C991.499646,1263.92871 990.896557,1264.57893 990.223606,1265.15765 C989.544239,1265.74171 989.460833,1266.73676 988.586852,1267.16979 C988.139169,1268.41811 987.712159,1269.67311 987.238099,1270.91208 C986.810376,1272.03075 987.33505,1273.19554 987,1274.31221 C987.438416,1275.00854 987.108356,1275.79509 987.298693,1276.52617 C987.498297,1277.29267 987.644436,1278.07187 987.787723,1278.84973 C987.921743,1279.58014 988.464238,1280.23036 988.269624,1281.02359 C989.016714,1281.72527 988.738694,1282.75106 989.184239,1283.56099 C989.619803,1284.35289 989.86218,1285.22765 990.176556,1286.07033 C990.64919,1287.33803 991.01917,1288.6799 991.786933,1289.80994 C992.529033,1290.89988 993.028043,1292.09941 993.672479,1293.2241 C994.306222,1294.33142 995.140994,1295.35253 995.61648,1296.62624 C996.436995,1297.15751 998.174976,1300.14799 998.490778,1300.19611 C998.806581,1300.43134 998.852917,1300.88442 999.301313,1300.98399 C999.701947,1300.8343 999.92365,1301.44109 1000.34995,1301.68567 C1000.53173,1301.824 1000.41197,1301.98505 1000.40769,1302.15747 C1000.99724,1302.55442 1000.87819,1303.17791 1002.03019,1302.95203 C1002.24761,1302.62525 1002.39518,1302.20291 1002.70456,1301.96968 C1004.7448,1300.42933 1005.82979,1298.20735 1007.29332,1296.26939 C1007.81229,1295.58308 1008.38045,1294.7698 1008.50663,1293.84893 C1008.56793,1293.40186 1008.9814,1293.19537 1009.19241,1292.85054 C1009.36421,1292.56853 1009.84754,1292.5251 1009.65791,1291.97044 C1009.5852,1291.75793 1010.31162,1291.37836 1010.34726,1291.04489 C1010.43067,1290.26035 1011.21839,1289.84268 1011.35455,1289.19246 C1011.51352,1288.43465 1012.1216,1287.99226 1012.41744,1287.35473 C1012.52152,1287.1322 1012.77174,1287.02327 1012.88508,1286.75196 C1013.40762,1285.5003 1013.94441,1284.24463 1014.62449,1283.06581 C1014.80984,1282.74437 1014.97879,1282.449 1015.05221,1282.0995 C1015.1677,1281.54818 1015.31241,1281.03763 1015.61253,1280.51437 C1015.84992,1280.10205 1016.14647,1279.62892 1016.24556,1279.14309 C1016.52144,1277.77983 1016.7574,1276.40856 1016.96556,1275.0346 C1017.14093,1273.8765 1016.57491,1272.7331 1016.86291,1271.55428" id="Pin" fill="#DA4A9A"></path>
        </g>
    </g>
</svg>
