
<svg width="43px" height="26px" viewBox="0 0 43 26" version="1.1" xmlns="http://www.w3.org/2000/svg" xmlns:xlink="http://www.w3.org/1999/xlink">
    <g stroke="none" stroke-width="1" fill="none" fill-rule="evenodd">
        <g transform="translate(-1103.000000, -2557.000000)" fill="#53BFC6">
            <g transform="translate(896.000000, 2386.000000)">
                <g transform="translate(203.000000, 0.000000)">
                    <path d="M11.7070661,171.014039 C11.9650504,171.036556 12.2265833,171.008762 12.485987,171.019669 C13.3106851,171.054499 14.1027359,171.148437 15.0030194,171.602295 C15.2237432,171.713472 15.4590164,171.811984 15.6779659,171.841537 C16.0629906,171.893959 16.3976249,172.04806 16.7414857,172.189846 C17.0654742,172.32354 17.3827204,172.452309 17.6850623,172.659184 C18.0154383,172.884705 18.4302714,173.007844 18.7915204,173.219996 C19.1421235,173.426519 19.4884683,173.626709 19.7716477,173.922243 C20.0069209,174.167819 20.2311933,174.467576 20.582861,174.510499 C20.8117467,174.538645 20.6605757,174.924247 20.9469489,174.807441 C21.1215407,175.281704 21.6116044,175.495615 21.8681693,175.902679 C22.2414835,176.493749 22.6389284,177.070042 22.9025904,177.723385 C23.1882539,178.432669 23.441625,179.142656 23.5892474,179.901899 C23.7067065,180.504931 23.7099003,181.13435 23.9519158,181.713106 C23.7269336,182.052619 24.230482,182.454406 23.8575226,182.791808 C23.8106809,182.834379 23.8493608,182.971944 23.85149,183.06553 C23.8692331,183.743853 23.6992544,184.403881 23.5413411,185.047373 C23.4366569,185.473436 23.2287081,185.897036 23.0665364,186.321691 C22.8656848,186.847321 22.6485096,187.371895 22.4086233,187.874657 C22.2251599,188.258852 21.9923708,188.64164 21.7656143,189.015632 C21.5856995,189.312926 21.4504973,189.634497 21.292584,189.943049 C21.1218956,190.276229 21.0967004,190.733253 20.6201215,190.848652 C20.6268639,191.083321 20.3124566,191.161075 20.3231024,191.351765 C20.3376518,191.614932 20.0938619,191.692334 20.0356647,191.870711 C19.9107534,192.254906 19.4728544,192.390359 19.3596536,192.770333 C19.1179929,192.712633 19.1914492,192.941321 19.1325422,193.034555 C19.0118893,193.225597 18.9164316,193.433175 18.7244516,193.566518 C18.3933658,193.795909 18.2741324,194.193122 17.9803071,194.458752 C17.7120318,194.701161 17.4668225,194.965383 17.2553251,195.274991 C16.9952116,195.655316 16.5182778,195.900188 16.2961346,196.292827 C16.0832177,196.669282 15.7304854,196.759702 15.4916636,197 C15.1275758,196.960244 14.9590166,196.494424 14.581444,196.726982 C14.3511389,196.328714 13.8802377,196.417726 13.5814444,196.166521 C13.4558234,196.060621 13.2542621,195.930797 13.0196987,195.993422 C12.7159373,196.074694 12.7067109,195.56947 12.3802383,195.718293 L12.3802383,195.364707 C12.5601531,195.275343 12.7496491,195.181405 12.9384354,195.087467 C12.8866256,195.028712 12.8412033,194.977345 12.7915227,194.921053 C12.8483006,194.732122 12.9934389,194.570633 12.9590174,194.361296 C13.2418419,194.26595 13.5086978,194.239915 13.713098,193.934177 C13.9877607,193.522539 14.3859153,193.190766 14.7077746,192.799183 C15.1073487,192.312606 15.5512803,191.865433 15.8937217,191.329248 C16.1534802,190.922184 16.4636292,190.546081 16.7531961,190.153442 C16.5952828,190.056689 16.356461,190.048949 16.2844241,190.119314 C16.0970573,190.302265 15.8096195,190.146405 15.7116777,190.267082 C15.518988,190.505269 15.4008191,190.10489 15.2514224,190.269193 C15.073282,190.464105 14.8901734,190.435959 14.7191302,190.250194 C14.3557521,190.642833 13.9969871,190.218882 13.6350284,190.218882 C13.3071364,190.219233 12.9849222,189.986676 12.649933,189.892034 C12.3965619,189.820261 12.165902,189.650329 11.8869809,189.685511 C11.7461009,189.703455 11.6733543,189.622886 11.592091,189.539503 C11.5438298,189.490247 11.4803096,189.401235 11.4387908,189.409327 C10.9093375,189.509598 10.6414171,188.908677 10.1417722,188.943508 C9.92459698,188.610327 9.51011879,188.639529 9.20174418,188.473467 C8.91572584,188.319014 8.64354709,188.12938 8.34901208,187.983019 C7.95227696,187.786348 7.60309328,187.491517 7.24326376,187.223424 C6.78087927,186.878986 6.38378929,186.513437 6.14212864,185.992029 C5.54986485,185.73801 5.55057458,185.05652 5.16235614,184.645938 C4.99628097,184.470728 4.94021286,184.178711 4.87456349,183.929618 C4.8330447,183.770592 4.67619593,183.737872 4.60061044,183.503555 C4.64674243,183.020848 4.32346364,182.512458 4.21629547,181.953052 C4.20848852,181.911888 4.16200167,181.87565 4.16129195,181.836597 C4.15632389,181.579412 4.15490444,181.321874 4.1598725,181.06504 C4.16377598,180.838112 4.01083069,180.660087 4.00089456,180.4219 C3.98386121,180.003929 4.21629547,179.638381 4.16874404,179.215484 C4.12225719,178.799625 4.06583421,178.347527 4.18116419,177.960165 C4.34049699,177.424684 4.38237064,176.859649 4.70422999,176.349148 C5.05199422,175.797131 5.35717508,175.214153 5.7106171,174.660025 C5.86462697,174.41832 6.08286677,174.25085 6.27378224,174.052771 C6.39762889,173.924003 6.47498869,173.800511 6.40295181,173.618265 C6.56547836,173.463812 6.735457,173.332229 6.86782033,173.17074 C7.54312169,172.346057 8.5044414,171.940401 9.39904715,171.430251 C9.6822266,171.268762 9.99308524,171.277206 10.2847814,171.177287 C10.7326165,171.023187 11.2194865,170.972172 11.7070661,171.014039 Z M36.9689948,171.021642 C37.7088049,171.16934 38.4805542,171.245231 39.1526669,171.583507 C39.485946,171.751283 39.7924933,171.848955 40.0191925,171.837384 C40.766293,172.138906 41.3863309,172.427835 42.0337949,172.632707 C42.3236783,172.724593 42.5375323,172.868547 42.765273,173.041769 C42.9728781,173.200017 43.3433039,173.148629 43.3905184,173.515832 C43.7092165,173.650598 43.9241121,173.908559 44.1528942,174.14542 C44.7288421,174.740295 45.1384976,175.425015 45.4946896,176.176437 C45.8855982,177.000687 46.2133226,177.833104 46.4587687,178.703638 C46.4750855,178.761492 46.5795824,178.814921 46.5715975,178.856781 C46.5132737,179.153197 46.7295579,179.416944 46.7017847,179.682392 C46.6538758,180.136716 46.8996691,180.53659 46.8628696,180.984788 C46.8278058,181.411547 46.8583564,181.84341 46.8538432,182.272892 C46.8521074,182.412082 46.8562734,182.541062 47,182.628183 C46.9645891,182.659833 46.9031408,182.6891 46.9017521,182.72041 C46.8840467,183.132194 46.719143,183.517774 46.7062978,183.935344 C46.6910225,184.447863 46.5802767,184.952895 46.4441877,185.452482 C46.2556768,186.145028 46.0296719,186.829067 45.8897641,187.533185 C45.8383836,187.791486 45.4804558,187.906514 45.5769679,188.221648 C45.2513265,189.000296 44.9253379,189.778603 44.4045894,190.459919 C44.3285601,190.559292 44.2303122,190.681806 44.2327423,190.791729 C44.2379498,191.027909 44.1397019,191.258645 43.9963225,191.366526 C43.8237812,191.496868 43.8956445,191.835144 43.5779879,191.813023 C43.5644484,191.812342 43.5443128,191.88483 43.5293847,191.923626 C43.4217633,192.202687 43.1978415,192.377951 42.9944024,192.587246 C42.7829785,192.804369 42.6201578,193.046335 42.3261084,193.182462 C42.1886308,193.246101 42.0803151,193.388014 41.9813729,193.511549 C41.3727915,194.274542 40.5041829,194.761197 39.8272098,195.454765 C39.6380045,195.648746 39.370687,195.796444 39.1641234,195.99587 C39.0092875,195.978514 38.8464668,196.041132 38.6836461,195.944142 C38.7246116,195.894455 38.7624527,195.848853 38.832233,195.764794 C38.5031199,195.719532 38.176437,195.698092 37.9025233,195.452042 C37.5754932,195.468377 37.2168711,195.470079 36.9460818,195.182851 L36.5308717,195.18217 L36.5308717,195.18217 C36.3850621,195.050467 36.2691088,194.877245 36.0469227,194.845936 L36.0469227,194.574362 C36.2534863,194.467843 36.4385256,194.395695 36.485393,194.083624 C36.5287887,193.791971 36.7225071,193.492151 37.0988347,193.39448 C37.3376847,193.332542 37.5064073,193.141624 37.6820731,192.971465 C38.0677742,192.598817 38.4520866,192.228551 38.8797947,191.894359 C39.1179504,191.708545 39.3547174,191.479852 39.5744732,191.252519 C39.8129761,191.00681 40.0629353,190.77165 40.3076871,190.531726 C40.6985957,189.704073 41.2120537,189.000296 41.4443076,188.176386 C41.2120537,188.017798 41.1273453,188.334634 40.9447362,188.279162 C40.4260706,188.76922 39.7695803,188.984641 39.0922601,189.137103 C38.4541696,189.281058 37.8372562,189.516898 37.1585472,189.493076 C36.8190192,189.481165 36.531566,189.270848 36.1757212,189.33653 C35.8705626,189.393022 35.5497815,189.355247 35.2664943,189.206868 C34.8304542,188.978515 34.3097057,188.949928 33.9056048,188.661339 C33.6855018,188.504452 33.4494291,188.440132 33.1942623,188.370367 C32.9113223,188.292775 32.6558084,188.119553 32.3881436,187.987509 C32.001401,187.796591 31.5851494,187.653317 31.2820737,187.327633 C30.4651929,187.052656 30.0138775,186.373722 29.5524943,185.741752 C29.2862182,185.377952 28.975505,184.993393 28.9487732,184.499251 C28.7720659,184.43357 28.9123208,184.169823 28.7234627,184.152467 C28.6363241,183.89859 28.7790092,183.656964 28.5755701,183.423166 C28.4512848,183.280913 28.6651388,182.985177 28.4599639,182.798002 C28.4443415,182.783709 28.4207342,182.760907 28.4235115,182.746614 C28.5578646,182.094905 28.2558305,181.501391 28.1218245,180.896306 C27.9989279,180.341928 28.0391991,179.799461 28.0037882,179.25189 C27.9833054,178.933012 28.0416293,178.646464 28.2836038,178.414708 L28.2839509,177.820513 L28.2839509,177.820513 C28.424553,177.43187 28.621396,177.164039 28.7258928,176.827805 C28.8213634,176.521179 28.9213471,176.170992 29.1268692,175.91235 C29.3320441,175.653368 29.3424591,175.302501 29.6056107,175.084016 C29.8843847,174.8526 29.9246559,174.489481 30.1659361,174.153247 C30.2374522,174.107304 30.4367253,174.099137 30.5023396,173.900051 C30.6682848,173.395359 31.0911326,173.130592 31.4875958,172.810012 C32.0999961,172.31485 32.8585531,172.066418 33.4653987,171.577381 C33.8184662,171.561386 34.1139042,171.29798 34.4516964,171.307849 C34.7165838,171.315336 34.8870422,171.093109 35.1588729,171.145177 C35.4032776,171.192141 35.6653876,171.166277 35.9184714,171.151984 C36.1802344,171.13735 36.4597027,171.235362 36.6982056,171.026066 C36.7495861,170.981144 36.8801204,171.004286 36.9689948,171.021642 Z" id="Combined-Shape"></path>
                </g>
            </g>
        </g>
    </g>
</svg>
